<?xml version="1.0" standalone="no"?>
<!DOCTYPE svg PUBLIC "-//W3C//DTD SVG 20010904//EN"
 "http://www.w3.org/TR/2001/REC-SVG-20010904/DTD/svg10.dtd">
<svg version="1.0" xmlns="http://www.w3.org/2000/svg"
 width="225.000000pt" height="225.000000pt" viewBox="0 0 225.000000 225.000000"
 preserveAspectRatio="xMidYMid meet">
<metadata>
Created by potrace 1.11, written by Peter Selinger 2001-2013
</metadata>
<g transform="translate(0.000000,225.000000) scale(0.100000,-0.100000)"
fill="#000000" stroke="none">
<path d="M985 2113 c-103 -14 -308 -98 -395 -161 -225 -166 -359 -377 -405
-641 -35 -200 -8 -386 88 -596 18 -38 35 -72 38 -75 3 -3 20 -26 37 -51 116
-172 309 -309 527 -375 83 -25 104 -28 260 -28 200 -1 268 12 412 79 317 148
521 432 563 781 34 283 -74 586 -284 800 -122 124 -325 228 -515 264 -51 10
-263 12 -326 3z m395 -62 c41 -11 121 -43 178 -71 236 -117 405 -321 482 -580
31 -106 39 -315 16 -429 -71 -351 -332 -627 -682 -723 -119 -32 -345 -32 -464
2 -383 107 -646 412 -691 805 -18 158 16 356 84 491 l33 66 13 -68 c16 -91 62
-174 128 -234 52 -47 53 -50 53 -104 0 -55 0 -55 35 -62 33 -6 35 -8 35 -48 0
-39 3 -44 40 -65 34 -19 40 -27 40 -56 0 -30 -5 -37 -55 -65 -46 -27 -55 -36
-55 -60 0 -23 8 -33 43 -52 34 -19 43 -29 45 -56 3 -27 -2 -35 -27 -50 -39
-22 -39 -46 0 -83 39 -36 35 -58 -19 -87 -33 -19 -42 -29 -42 -50 0 -24 12
-34 97 -82 54 -30 103 -56 110 -58 10 -3 13 43 13 220 0 123 3 301 7 396 l6
172 24 0 24 0 -1 -397 c-1 -219 -1 -402 -1 -407 1 -6 16 5 34 22 l34 33 6 441
c6 408 8 443 24 451 39 21 126 122 150 174 37 81 43 196 13 282 -49 146 -166
249 -305 268 -25 3 -42 9 -38 13 17 15 101 43 183 61 112 25 318 20 430 -10z
m-542 -136 c76 -23 150 -87 190 -166 28 -54 33 -75 34 -136 1 -105 -23 -164
-97 -238 -43 -44 -75 -65 -114 -79 -138 -48 -293 -1 -377 113 -94 130 -81 317
29 418 31 28 31 28 -2 -11 -56 -67 -76 -120 -76 -211 0 -67 4 -89 27 -135 31
-62 84 -118 143 -149 33 -18 75 -28 75 -18 0 1 -6 35 -14 74 l-14 73 23 -6
c26 -6 65 11 65 28 0 9 -3 9 -12 0 -16 -16 -53 -15 -67 2 -6 8 -22 41 -36 75
-20 52 -22 65 -12 93 7 18 16 36 22 40 5 4 10 17 10 30 0 13 9 27 23 34 12 6
29 19 36 29 12 17 15 17 63 1 34 -11 53 -24 56 -37 7 -28 -12 -33 -56 -14 -20
8 -37 13 -37 10 0 -2 16 -12 36 -20 29 -12 35 -19 31 -35 -3 -11 -1 -20 4 -20
10 0 12 -33 2 -43 -4 -4 -12 6 -19 23 -7 16 -19 30 -26 30 -7 0 -26 7 -42 15
-16 9 -31 13 -34 10 -3 -2 17 -14 43 -25 34 -15 45 -24 41 -36 -3 -8 -2 -12 4
-9 6 3 10 -5 10 -19 0 -32 -16 -33 -41 -3 -16 19 -18 20 -19 4 0 -10 4 -16 9
-13 11 7 23 -22 15 -35 -7 -12 -44 -12 -44 0 0 5 -10 11 -22 14 -13 2 -32 8
-43 12 l-20 8 20 -16 c11 -9 16 -17 10 -18 -5 -1 8 -5 30 -10 74 -17 85 -18
85 -4 0 8 6 18 13 22 7 4 22 19 32 33 11 14 31 26 44 28 26 3 55 21 46 30 -2
3 -11 -1 -19 -7 -28 -24 -78 12 -59 42 4 6 10 1 15 -12 11 -30 43 -24 42 7 -1
32 30 24 34 -8 4 -35 -56 -132 -93 -150 -26 -13 -29 -19 -24 -40 32 -113 42
-141 58 -161 l18 -23 45 27 c120 70 176 225 134 370 -20 69 -89 148 -160 184
-95 48 -231 40 -313 -18 -19 -14 -18 -11 6 9 57 51 169 66 269 37z m20 -233
c2 -7 -3 -12 -12 -12 -9 0 -16 7 -16 16 0 17 22 14 28 -4z"/>
<path d="M992 1090 c18 -49 26 -60 44 -60 18 0 27 11 43 55 25 67 25 65 2 65
-12 0 -23 -13 -33 -37 l-15 -38 -8 38 c-6 30 -12 37 -31 37 l-23 0 21 -60z"/>
<path d="M1107 1113 c-15 -14 -6 -25 18 -21 13 3 22 1 19 -3 -3 -5 -14 -9 -25
-9 -14 0 -19 -7 -19 -25 0 -23 3 -25 50 -25 l50 0 -3 33 c-2 19 -7 39 -11 45
-8 13 -68 16 -79 5z m53 -47 c0 -3 -4 -8 -10 -11 -5 -3 -10 -1 -10 4 0 6 5 11
10 11 6 0 10 -2 10 -4z"/>
<path d="M1210 1074 c0 -37 3 -44 20 -44 16 0 20 7 20 30 0 17 5 30 10 30 6 0
10 -13 10 -30 0 -20 5 -30 15 -30 21 0 27 19 17 55 -8 27 -13 30 -50 32 l-42
2 0 -45z"/>
<path d="M1332 1108 c-7 -7 -12 -21 -12 -33 0 -29 19 -45 51 -45 31 0 60 27
38 35 -8 2 -21 3 -29 2 -8 -1 -15 3 -15 8 0 6 9 11 20 11 36 2 38 4 25 19 -15
18 -61 20 -78 3z"/>
<path d="M1442 1108 c-7 -7 -12 -21 -12 -33 0 -29 19 -45 52 -45 36 0 56 36
39 69 -13 23 -59 29 -79 9z m48 -33 c0 -8 -7 -15 -15 -15 -16 0 -20 12 -8 23
11 12 23 8 23 -8z"/>
<path d="M1542 1078 c3 -43 3 -43 46 -46 l42 -3 0 45 c0 33 -4 46 -14 46 -9 0
-16 -12 -18 -27 -4 -33 -22 -33 -23 -1 0 14 -7 24 -18 26 -16 3 -18 -2 -15
-40z"/>
<path d="M1645 1103 c4 -10 12 -30 17 -45 14 -39 41 -35 61 7 21 44 21 55 2
55 -9 0 -19 -10 -24 -22 l-8 -23 -7 23 c-5 13 -15 22 -28 22 -15 0 -18 -4 -13
-17z"/>
<path d="M1748 1094 c-17 -38 0 -59 48 -59 35 0 39 3 42 28 4 37 -13 57 -49
57 -22 0 -32 -7 -41 -26z m52 -4 c0 -5 -5 -10 -11 -10 -5 0 -7 5 -4 10 3 6 8
10 11 10 2 0 4 -4 4 -10z"/>
<path d="M1854 1106 c-10 -27 1 -71 19 -74 13 -3 17 3 17 23 0 14 7 28 15 31
8 4 15 12 15 20 0 19 -59 19 -66 0z"/>
<path d="M970 875 c0 -8 9 -15 20 -15 17 0 20 -7 20 -45 0 -38 3 -45 20 -45
17 0 20 7 20 41 0 32 4 42 20 46 11 3 20 12 20 19 0 10 -16 14 -60 14 -47 0
-60 -3 -60 -15z"/>
<path d="M1542 872 c-21 -21 -23 -37 -6 -89 4 -15 54 -18 54 -3 0 6 -4 10 -10
10 -5 0 -10 9 -10 20 0 11 5 20 10 20 6 0 10 7 10 15 0 8 -4 15 -9 15 -5 0
-11 8 -13 17 -3 16 -6 15 -26 -5z"/>
<path d="M1095 836 c-27 -41 5 -79 58 -69 15 3 27 8 27 12 0 3 3 15 6 27 13
49 -63 74 -91 30z"/>
<path d="M1200 814 c0 -38 3 -44 21 -44 11 0 18 4 15 9 -4 5 -2 20 3 33 8 20
10 21 16 6 4 -10 5 -25 1 -33 -4 -10 1 -15 15 -15 18 0 20 5 17 43 l-3 42 -42
2 -43 2 0 -45z"/>
<path d="M1314 848 c-4 -6 -2 -14 5 -16 9 -3 8 -9 -4 -22 -24 -27 -10 -40 41
-40 l44 0 0 39 c0 26 -5 41 -16 45 -26 10 -62 7 -70 -6z m46 -18 c0 -5 -5 -10
-11 -10 -5 0 -7 5 -4 10 3 6 8 10 11 10 2 0 4 -4 4 -10z"/>
<path d="M1420 814 c0 -38 3 -44 21 -44 11 0 17 5 14 10 -9 14 4 52 16 45 5
-4 9 -17 9 -31 0 -15 6 -24 16 -24 12 0 14 9 12 43 l-3 42 -42 2 -43 2 0 -45z"/>
<path d="M1613 854 c-7 -3 -13 -14 -13 -24 0 -10 6 -21 13 -23 10 -4 10 -6 0
-6 -20 -1 -15 -31 5 -32 55 -4 79 10 67 38 -5 10 -9 25 -9 33 -1 15 -40 23
-63 14z"/>
<path d="M987 623 c-13 -12 -7 -79 9 -101 19 -27 64 -29 87 -4 11 12 17 36 17
65 0 40 -3 47 -20 47 -17 0 -20 -7 -20 -46 0 -38 -3 -45 -17 -42 -13 2 -19 15
-21 46 -3 39 -17 53 -35 35z"/>
<path d="M1231 565 c-1 -52 2 -65 14 -65 12 0 15 13 14 65 -1 44 -6 65 -14 65
-8 0 -13 -21 -14 -65z"/>
<path d="M1148 593 c-26 -4 -28 -8 -28 -49 0 -32 4 -44 15 -44 9 0 15 9 15 24
0 35 18 42 22 9 2 -17 10 -29 21 -31 14 -3 17 4 17 35 0 35 -15 66 -29 62 -4
-1 -18 -4 -33 -6z"/>
<path d="M1302 589 c-19 -7 -23 -15 -20 -40 4 -38 25 -54 61 -45 38 9 48 53
17 78 -25 20 -26 20 -58 7z m38 -39 c0 -11 -4 -20 -9 -20 -14 0 -23 18 -16 30
10 17 25 11 25 -10z"/>
<path d="M1394 591 c-2 -2 -4 -24 -4 -48 0 -37 3 -44 18 -41 10 2 18 14 20 31
4 37 22 34 22 -4 0 -24 4 -30 17 -27 14 3 17 12 15 43 -2 22 -5 42 -7 43 -5 6
-76 8 -81 3z"/>
<path d="M660 1630 c8 -5 22 -9 30 -9 10 0 8 3 -5 9 -27 12 -43 12 -25 0z"/>
</g>
</svg>
